<?xml version="1.0" encoding="UTF-8"?>
<svg width="150px" height="91px" viewBox="0 0 150 91" version="1.1" xmlns="http://www.w3.org/2000/svg" xmlns:xlink="http://www.w3.org/1999/xlink">
    <!-- Generator: Sketch 51.2 (57519) - http://www.bohemiancoding.com/sketch -->
    <title>Big12_Conference_2018_2.FullColor_Simplified</title>
    <desc>Created with Sketch.</desc>
    <defs></defs>
    <g id="DESIGN" stroke="none" stroke-width="1" fill="none" fill-rule="evenodd">
        <g id="1920---sport" transform="translate(-1062.000000, -3144.000000)">
            <g id="HOME" transform="translate(0.000000, 130.000000)">
                <g id="footer" transform="translate(0.000000, 2956.000000)">
                    <g id="logos">
                        <g transform="translate(252.000000, 1.000000)" id="big-12">
                            <g transform="translate(708.000000, 0.000000)">
                                <g id="Big12_Conference_2018_2.FullColor_Simplified" transform="translate(102.000000, 57.000000)">
                                    <path d="M148.689286,89.4862084 L148.88648,89.4862084 C148.980867,89.4862084 149.045153,89.4718863 149.079592,89.443242 C149.113776,89.4143374 149.131122,89.3763186 149.131122,89.3291858 C149.131122,89.2734597 149.107908,89.2320557 149.06148,89.2049739 C149.029337,89.1854437 148.966837,89.1758089 148.874235,89.1758089 L148.689286,89.1758089 L148.689286,89.4862084 Z M148.526786,90.0650827 L148.526786,89.0364936 L148.872959,89.0364936 C148.991071,89.0364936 149.076786,89.0461285 149.129847,89.0651379 C149.182653,89.0841472 149.225,89.1169579 149.256378,89.1638303 C149.287755,89.2107028 149.303571,89.2612208 149.303571,89.3151241 C149.303571,89.3903803 149.277296,89.4557413 149.224745,89.5114674 C149.172194,89.5671935 149.102551,89.5984418 149.015561,89.6052122 C149.051276,89.620576 149.079847,89.6385437 149.101276,89.6598967 C149.141837,89.7002591 149.191582,89.7682241 149.250255,89.8637917 L149.372959,90.0650827 L149.17449,90.0650827 L149.085204,89.9031125 C149.017347,89.780463 148.965051,89.7041651 148.928827,89.673698 C148.892347,89.643231 148.844388,89.6281276 148.784694,89.6281276 L148.689286,89.6281276 L148.689286,90.0650827 L148.526786,90.0650827 Z M148.9375,88.7388538 C148.805867,88.7388538 148.677806,88.7732269 148.553316,88.8419731 C148.428827,88.9109797 148.331378,89.0091514 148.261224,89.1372693 C148.190816,89.2651268 148.155612,89.3984528 148.155612,89.5369868 C148.155612,89.6744793 148.190051,89.8065032 148.259184,89.9327983 C148.328316,90.0590934 148.425,90.1572651 148.54898,90.2278341 C148.673214,90.2984032 148.802551,90.3335575 148.9375,90.3335575 C149.072194,90.3335575 149.201786,90.2984032 149.325765,90.2278341 C149.45,90.1572651 149.546429,90.0590934 149.615051,89.9327983 C149.683673,89.8065032 149.718112,89.6744793 149.718112,89.5369868 C149.718112,89.3984528 149.683163,89.2651268 149.61301,89.1372693 C149.543112,89.0091514 149.445918,88.9109797 149.320918,88.8419731 C149.195918,88.7732269 149.068112,88.7388538 148.9375,88.7388538 Z M148.9375,88.5805292 C149.094643,88.5805292 149.248214,88.6216728 149.397959,88.7039599 C149.547704,88.786247 149.664286,88.9042093 149.747704,89.0573258 C149.831378,89.2107028 149.873214,89.3705898 149.873214,89.5369868 C149.873214,89.7015611 149.831888,89.8596253 149.749745,90.0111794 C149.667347,90.162994 149.552041,90.2809562 149.403571,90.3653266 C149.255102,90.4496969 149.09949,90.4921425 148.9375,90.4921425 C148.775255,90.4921425 148.619898,90.4496969 148.471429,90.3653266 C148.322959,90.2809562 148.207398,90.162994 148.12449,90.0111794 C148.041837,89.8596253 148.00051,89.7015611 148.00051,89.5369868 C148.00051,89.3705898 148.042602,89.2107028 148.126531,89.0573258 C148.210459,88.9042093 148.327296,88.786247 148.477041,88.7039599 C148.626786,88.6216728 148.780357,88.5805292 148.9375,88.5805292 Z" id="Fill-1" fill="#BBBFBD"></path>
                                    <path d="M0.299489796,0.127597126 L1.14872449,2.83526023 C2.49515306,7.11523241 3.84795918,11.4717629 5.16479592,15.7803793 C6.71836735,20.8566617 7.54158163,23.4424566 9.16096939,28.3523419 C9.60229592,29.6965386 10.0464286,31.0498493 10.4910714,32.4039413 L10.7673469,33.2413951 L11.619898,33.3900848 C12.1795918,33.4885168 12.7589286,33.5885113 13.3482143,33.6885058 C14.1711735,33.8270398 15.007398,33.9705215 15.7905612,34.1127011 C17.7987245,34.4772644 19.3622449,34.7595405 21.1002551,35.0483266 C23.5132653,38.7934325 25.3665816,41.6503061 27.5984694,44.7014398 C25.1063776,48.1976011 23.1280612,51.3411776 20.3892857,55.7706207 C18.9178571,56.0177425 17.5022959,56.2713744 15.4418367,56.6458329 C14.7242347,56.778638 13.9079082,56.910662 13.1178571,57.0374779 C12.4265306,57.1507529 11.7385204,57.2650695 11.1130102,57.3775633 L10.2604592,57.5288571 L9.99056122,58.3681337 C9.5494898,59.7279545 9.10841837,61.0807444 8.66734694,62.4270243 C7.04770408,67.398625 6.2247449,70.0128037 4.67423469,75.1354377 C3.43316327,79.2349511 2.14285714,83.4519059 0.724234694,88.0292575 L0,90.3697534 L2.36352041,89.9278507 C5.24056122,89.3942864 8.6869898,88.5930285 12.6765306,87.6714648 C26.6765306,84.433883 47.8329082,79.5346741 73.2061224,79.536497 L73.4201531,79.536497 C98.7997449,79.5640996 131.553061,86.7902634 144.456888,89.8932172 L146.938776,90.4924029 L146.168622,88.0099878 C144.910969,83.9550032 143.581122,79.6211277 142.215051,75.127886 C140.667857,70.0044708 139.848469,67.3926357 138.228827,62.4270243 C137.791071,61.0755364 137.35,59.7196216 136.908673,58.3639672 L136.639031,57.5228678 L135.786224,57.3718345 C135.177296,57.2650695 134.541837,57.1551798 133.903316,57.0458108 C133.119898,56.910662 132.33648,56.778638 131.592602,56.6434893 C130.716837,56.4830814 129.976276,56.3367353 129.284949,56.2065342 C128.718878,56.0966444 128.188776,55.9917023 127.665306,55.8966555 L127.665306,34.8014652 C128.182398,34.7064184 128.692602,34.6040803 129.252041,34.4965341 C129.953316,34.3621666 130.707143,34.214258 131.595663,34.053069 C132.362755,33.9111498 133.175765,33.7749594 133.982398,33.6379878 C134.58801,33.5330456 135.190561,33.4304471 135.769643,33.3288902 L136.619133,33.1794193 L136.89898,32.3427467 L137.149235,31.5722163 C137.504592,30.4725374 137.863265,29.3798894 138.222194,28.2893245 C139.825255,23.407823 140.644898,20.8181222 142.211735,15.6837701 C142.810969,13.7255448 143.383673,11.7556014 143.940051,9.84789414 C144.624745,7.52015799 145.325765,5.11091592 146.059949,2.77146167 L146.80051,0.402321552 L144.407398,0.87104569 C143.808418,0.987966322 142.702296,1.25513908 141.020153,1.66240828 C131.148214,4.05654701 101.104082,11.3347913 73.5318878,11.3347913 C36.6308673,11.3347913 3.28520408,1.07702391 2.95586735,0.972862989 L0.299489796,0.127597126" id="Fill-2" fill="#BBBFBD"></path>
                                    <path d="M140.832398,75.5637995 C139.288776,70.4588728 138.469133,67.8512042 136.856122,62.8934048 C136.415051,61.5416565 135.97398,60.1867833 135.535969,58.8267021 C134.183163,58.5873924 132.688776,58.3436559 131.339031,58.0993985 C129.205867,57.7077534 127.843112,57.4121968 126.213776,57.1408576 L126.213776,33.5557006 C127.849745,33.282799 129.215816,32.984378 131.342347,32.5955974 C132.688776,32.3518608 134.176531,32.1091659 135.522959,31.8714186 C135.967347,30.5155038 136.408418,29.1647971 136.852806,27.819038 C138.472449,22.8726963 139.291837,20.2853391 140.829337,15.2444714 C142.1625,10.8861181 143.350765,6.57672046 144.683929,2.32278851 C140.529592,3.13524368 105.653316,12.8141367 73.5318878,12.8141367 C37.582398,12.8141367 4.49642857,3.00999017 2.52806122,2.38502466 C3.86785714,6.65067471 5.21096939,10.9684052 6.54744898,15.340039 C8.10102041,20.4090302 8.92066327,22.9877941 10.5336735,27.8820553 C10.9780612,29.2278144 11.422449,30.5793024 11.8668367,31.9333943 C13.2132653,32.1711416 14.7010204,32.4107117 16.047449,32.6586147 C18.4571429,33.0945282 20.0798469,33.3843559 21.9561224,33.6926722 C24.8035714,38.1077932 26.7885204,41.1875712 29.4022959,44.6878989 C26.5153061,48.6756997 24.3691327,52.1005107 21.2647959,57.1205463 C19.5234694,57.410374 17.969898,57.6884837 15.6984694,58.1009609 C14.3456633,58.3504263 12.7127551,58.5915589 11.3632653,58.8308686 C10.9221939,60.1935538 10.4844388,61.5450417 10.0433673,62.8960089 C8.45,67.7767291 7.63035714,70.3830957 6.06020408,75.5721324 C4.74030612,79.9244964 3.42015306,84.2229571 2.10663265,88.4745455 C15.1816327,86.0374403 40.6568878,78.0209556 73.4232143,78.0594951 C101.304847,78.0889206 137.744898,86.7582339 144.789286,88.4542341 C143.469133,84.2078538 142.152551,79.9109555 140.832398,75.5637995" id="Fill-3" fill="#DD443E"></path>
                                    <path d="M53.1359694,70.7143275 C60.1015306,70.1479525 66.8923469,69.9026535 73.5747449,69.9581192 C94.0331633,70.1229539 113.507398,73.0923213 133.893367,78.2779726 C132.329847,73.0261791 131.546429,70.4924647 129.96301,65.582319 C125.555357,64.8354852 123.316837,64.4901917 118.803827,63.8772047 L118.803827,26.7974798 C123.316837,26.1834511 125.555357,25.8415429 129.96301,25.0931467 C131.546429,20.225707 132.329847,17.7107416 133.893367,12.4974875 C106.802041,19.4093457 81.3204082,22.3990245 53.0076531,20.1290977 L53.0076531,29.3108828 C56.1283163,29.4840503 56.6647959,29.5603482 59.7951531,29.6587802 C56.4443878,33.6851206 54.7655612,35.7162585 51.427551,39.9399838 C48.3793367,35.5774641 46.8553571,33.3296714 43.830102,28.586704 C46.5359694,28.8749693 46.8783163,29.0176698 49.6071429,29.2403137 L49.6071429,20.0233744 C36.8385204,18.2138388 23.7272959,15.7996491 13.6377551,13.0326143 C15.2081633,18.2307649 15.8596939,20.2871619 17.4367347,25.1460084 C20.8994898,25.7282679 22.647449,26.0068984 26.1696429,26.507652 C31.169898,34.4561718 33.7045918,37.9877478 38.8068878,44.5938937 C33.4576531,51.7468844 30.8045918,55.5747982 25.5607143,64.2610377 C22.1438776,64.7500732 20.4517857,65.0221936 17.0941327,65.5883082 C15.5140306,70.4974124 14.8821429,72.885041 13.3186224,78.1352722 C25.6431122,75.0580982 36.5420918,72.9631617 49.3405612,71.1627402 L49.3405612,61.5544162 C46.084949,61.7820078 45.4826531,61.9366868 42.259949,62.250732 C45.7821429,57.0669034 47.55,54.6407352 51.0984694,49.951671 C54.6897959,54.5139193 56.4903061,56.6830704 60.094898,61.015123 C56.8984694,61.1435014 56.322449,61.2453187 53.1359694,61.4619734 L53.1359694,70.7143275 Z M96.6336735,29.0957905 C98.6747449,28.9463195 100.086735,28.8640324 102.12449,28.685136 L102.12449,62.0038706 C100.086735,61.8223702 99.0696429,61.7416455 97.0288265,61.5906121 L96.6336735,61.5906121 L96.6336735,29.0957905 Z M76.7482143,29.9392335 C78.0451531,29.9249114 78.7,29.9157973 79.9969388,29.8931423 L79.9969388,60.8000307 C79.0951531,60.7823234 78.647449,60.778157 77.7454082,60.7656576 C72.0637755,54.0829534 69.2165816,50.9201071 63.5380102,44.247819 C68.8181122,38.4791269 71.4647959,35.7222478 76.7482143,29.9392335 Z" id="Fill-4" fill="#FFFFFE"></path>
                                </g>
                            </g>
                        </g>
                    </g>
                </g>
            </g>
        </g>
    </g>
</svg>