<svg xmlns="http://www.w3.org/2000/svg" width="199" height="72" viewBox="0 0 734.2 129.8">
  <style>.st0{fill:#154734}</style>
  <path class="st0" d="M132.3 0h3.1v129.8h-3.1zM175.1 87.3c0 6.4-.4 8.3 12.2 8.3 11.8 0 15-7.8 15-13.2 0-5.7-.4-17.1-20.8-17.1-6.9 0-6.4 1.2-6.4 2v20zm0-28c0 2.8-1.1 3.3 6.9 3.3 14.6 0 15.3-5.4 15.3-9.6 0-9.6-8.1-15-17.1-15-5.6 0-5.2 1.5-5.2 6.7v14.6h.1zm-7-15.4c0-6.8-7.9-5.9-7.9-7.7 0-1.3 1.3-1.2 2.4-1.2 1.8 0 3.6.4 7.1.4 3.6 0 7.1-.4 14.2-.4 15.7 0 19.6 8.5 19.6 15.1 0 9.1-8.4 12-8.4 12.6 0 1.3 14 1.6 14 16.4 0 5.9-4.3 18.9-21.6 18.9-3.2 0-8.5-.4-11.6-.4-4.1 0-8.3.4-12.4.4-.4 0-2.2-.2-2.2-1 0-.9 1.1-1.2 2.7-1.7 1-.3 4.1-.7 4.1-7.6V43.9zM236.2 78.5c-5.7 1.2-16.5 2.7-16.5 10.5 0 5.1 2.6 7 7.3 7 3.2 0 9.3-2.5 9.3-7.2V78.5h-.1zm0-9c0-4.6-3.6-7.7-9.2-7.7-4.3 0-7.7.4-7.7 5.3 0 1.3.5 2.7.5 3.6 0 1-.3 1.7-2 1.7-1.5 0-4.2-1.3-4.2-2.9.1-4.1 5.1-10.3 14.9-10.1 5.5 0 14.1 1.6 14.1 9.2V87c0 3-.8 8.3 3.8 8.3.4 0 1.2-.2 1.5-.2.4 0 1.2 0 1.2.6 0 1.9-3.9 2.2-5.2 2.2-3.5 0-5.8-1.6-6.9-4.5-3.7 3.2-8.6 5.2-13.6 5.2-5.8 0-9.6-2.1-9.6-8.5 0-4.7 1.5-10.3 22.3-13.8l.1-6.8zM261.3 115.5c-.1.3-1.7.3-2.9.3s-3.3.1-3.3-.6c0-2 8.1-8.6 8.1-15.6 0-2.1-1-4.1-1.8-6l-11.7-28.7c-.8-2-4.2-2-4.2-3.3 0-.9.5-1.1 1.8-1.1 1.9 0 3.8.4 6.2.4 3.1 0 5.2-.4 6.6-.4 1.3 0 1.9.2 1.9 1.2 0 1.9-5.1.1-5.1 3.6 0 1.4.8 2.8.6 2l-.2.2 9.5 24.2 6.9-20.1c1.1-3.2 1.1-4 1.1-4.6 0-4.8-5.7-3.5-5.7-5.4 0-.9 1.1-1 2.7-1 1.1 0 2.5.4 5 .4 2 0 3.6-.4 4.5-.4 1.1 0 1.7.4 1.7 1.1 0 2-3-.2-4.8 5.2l-16.9 48.6z"/>
  <path class="st0" d="M294.7 90.8c0 6.1 7.4 3.6 7.4 6 0 1.1-.7 1.2-2 1.2-1.2 0-4-.4-8.2-.4-4.4 0-6.1.4-6.9.4-.7 0-1.1-.4-1.1-1.2 0-1.3 4.4-1.1 4.4-4.9V41.7c0-5.3-6.1-3-6.1-4.9 0-.5.4-.9.8-1 6.9-1.6 8.6-4.4 10.7-4.4.5 0 1.1.5 1.1 1.4l-.1 58zM335.4 80.7c0-9.2-3.8-19.2-14.4-19.2-8.7 0-12.3 7.7-12.3 15.2 0 8.7 4.1 20.1 14.5 20.1 7.5 0 12.2-5.1 12.2-16.1m-32.9-.9c0-10.9 8.6-20.3 19.8-20.3 6.8 0 19.3 3.3 19.3 19.8 0 10.9-8.3 19.3-19.2 19.3-11.6 0-19.9-6.8-19.9-18.8M355.5 90.2c0 8.3 7.9 4 7.9 6.9 0 .8-.4 1-1.4 1-1.2 0-3.4-.4-8.4-.4-6 0-7.6.4-8.2.4-.7 0-1-.3-1-.8 0-1.9 4.5-1.5 4.5-5.2v-23c0-5.3-6.4-3-6.4-4.9 0-.5.7-.9 1.2-1 6.9-1.6 8.6-4.4 10.7-4.4.5 0 1.1.5 1.1 1.4v6.7h.2c1.9-2.6 5.1-7.4 8.8-7.4 1.9 0 5.9 2.3 5.9 4 0 1.3-2.1 4-3.2 4-1.7 0-2.7-2-5.9-2-3.6 0-5.8 4.1-5.8 5.3v19.4zM397.4 74.3c0 14.2 9.3 20.7 21.3 20.7 16.7 0 20.6-11 20.6-21.5V44.6c0-9.1-8.3-5.3-8.3-8.7 0-.4.6-.9.9-.9 3.5 0 6.9.4 10.4.4 1.7 0 3.3-.4 4.9-.4.4 0 1.2.4 1.2 1 0 2.5-5.2.5-5.2 8.7v27.6c0 4.4 1.1 26.3-24.8 26.3-23.4 0-27.9-13.1-27.9-26.8v-30c0-5.2-7.2-3.1-7.2-6 0-.6 1.5-.9 2-.9 2.3 0 4.5.4 6.9.4 2.8 0 5.7-.4 8.5-.4.4 0 2.8-.2 2.8.9 0 2.5-6 0-6 6.4l-.1 32.1zM461.1 90.8c0 6.1 7.8 3.6 7.8 6 0 1.1-.6 1.2-2 1.2-1.5 0-3.3-.4-8.5-.4-4.7 0-6.5.4-7.6.4-1.2 0-1.6-.2-1.6-1.1 0-1.8 5.3 0 5.3-5.8v-22c0-5.3-6.6-3-6.6-4.9 0-.5.4-.9.8-1 7.4-1.6 9.2-4.4 11.2-4.4.5 0 1.1.5 1.1 1.4v5.9c-.2 1.1 4.3-6.6 12.9-6.6 11.9 0 14.5 9.9 14.5 16.6v14.7c0 6.1 6.9 3.6 6.9 6 0 1.1-.6 1.2-1.5 1.2-1.2 0-3.4-.4-7.7-.4-3.4 0-5.3.4-6.4.4-1.2 0-1.6-.2-1.6-1.1 0-1.8 3.8 0 3.8-5.8V74.5c0-4.4-3.2-11.1-10.4-11.1-7.5 0-10.6 5.5-10.5 6.9v20.5h.1zM509 45.9c0 1.1-2.6 4.6-3.7 4.6s-3.7-3.6-3.7-4.6 2.7-4.7 3.7-4.7c1.1 0 3.7 3.6 3.7 4.7m-6.9 23.2c0-5.3-4.9-3-4.9-4.9 0-.5.4-.9.8-1 5.7-1.6 7.5-4.4 9.5-4.4.5 0 1.1.5 1.1 1.4v31.9c0 4.5 7 2.6 7 4.9 0 .7-.5 1-1.7 1-1.9 0-4.6-.4-8.3-.4-2.9 0-5.2.4-6.1.4-.7 0-1.2-.1-1.3-1 0-2.2 3.9 1.2 3.9-6.9v-21zM536.6 90.5l6-12.8c1.7-3.6 3.9-7.3 3.9-11.3 0-5-5.5-2.5-5.5-4.7 0-1.1 1-1.2 2.1-1.2 1.9 0 3.6.4 5.5.4 1.5 0 3.1-.4 4.6-.4.9 0 2.4.1 2.4 1.3s-3.2.6-4.4 3.3l-13.6 28.8c-1.7 3.6-1.7 4.7-3 4.7-1.2 0-1.5-1.5-1.8-2.1l-13.4-30.7c-1.7-4-4.9-2.7-4.9-4.3 0-.6.1-1.1 1.9-1.1 1.7 0 1.7.4 7.6.4 3.3 0 4.4-.4 5.5-.4 1.2 0 2 0 2 1 0 1.8-5.1.6-5.1 3.3 0 .3.4 1.7 1.5 4.4l8.7 21.4zM579.5 72.8c1.2 0 1.8-.4 1.8-1.8 0-5-5-9.4-9.9-9.4-5.5 0-9.4 6.3-9.4 11.2h17.5zM562 75.2c0 14.7 8.9 19 14.3 19 7.6 0 10.6-4.6 12.5-4.6.4 0 .4.4.4.6 0 2-7.7 8.5-15.7 8.5-13.3 0-18-12.4-18-18.2 0-11.4 6.3-20.9 17.4-20.9 10.9 0 15.8 10.6 15.8 14.2 0 1.6-1 1.5-3 1.5l-23.7-.1zM603.2 90.2c0 8.3 7.9 4 7.9 6.9 0 .8-.4 1-1.4 1-1.2 0-3.4-.4-8.4-.4-6 0-7.6.4-8.2.4-.7 0-1-.3-1-.8 0-1.9 4.5-1.5 4.5-5.2v-23c0-5.3-6.4-3-6.4-4.9 0-.5.7-.9 1.2-1 6.9-1.6 8.6-4.4 10.7-4.4.5 0 1.1.5 1.1 1.4v6.7h.2c1.9-2.6 5.1-7.4 8.8-7.4 1.9 0 5.9 2.3 5.9 4 0 1.3-2.1 4-3.2 4-1.7 0-2.7-2-5.9-2-3.6 0-5.8 4.1-5.8 5.3v19.4zM622.1 70.2c0-7.1 5.5-10.7 12-10.7 1.5 0 7.6.7 8.7 2 .5.7.4 3.7.4 4.4 0 2.4.4 3.5-1 3.5-.9 0-1.7-7.7-9.8-7.7-3.5 0-6.2 2-6.2 5.7 0 2.9 2.3 4.8 11.7 8.5 5.1 2.1 7.4 4.9 7.4 10.6 0 6.7-5.4 12.2-12 12.2-6.2 0-7.8-2.6-10-2.6-2 0-2-.1-2-7.1 0-1.5-.3-4.4 1.1-4.4 2 0 1 11.7 10.6 11.7 4.4 0 7.9-2.7 7.9-7.3 0-4.7-4.5-6.1-8.1-7.8-4.7-2.4-10.7-4.7-10.7-11M662.5 45.9c0 1.1-2.6 4.6-3.7 4.6s-3.7-3.6-3.7-4.6 2.7-4.7 3.7-4.7c1.1 0 3.7 3.6 3.7 4.7m-6.9 23.2c0-5.3-4.9-3-4.9-4.9 0-.5.4-.9.8-1 5.7-1.6 7.5-4.4 9.5-4.4.5 0 1.1.5 1.1 1.4v31.9c0 4.5 7 2.6 7 4.9 0 .7-.5 1-1.7 1-1.9 0-4.6-.4-8.3-.4-2.8 0-5.2.4-6.1.4-.7 0-1.3-.1-1.3-1 0-2.2 3.9 1.2 3.9-6.9v-21zM674.9 64.3c-4.2 0-4.8 0-4.8-.6 0-.7 2.2-2.2 6.8-7.2 1.8-2.1 2.7-4.1 3.4-4.1 1.2 0 1.2 1.9 1.2 8.3h9.8c2.2 0 3.2-1.5 3.5-1.5.4 0 .6.4.6.7 0 .4-.3.8-.5 1.2l-1.8 3.2h-11.6v25.9c.2 3.6 2.7 5.3 6.2 5.3 4.7 0 6-2 7.6-2 .4 0 .7.1.7.8 0 1.3-4.8 4.4-11 4.4-4.1 0-10-1.2-10-10.3V64.3h-.1zM712.5 115.5c-.1.3-1.7.3-2.9.3s-3.3.1-3.3-.6c0-2 8.1-8.6 8.1-15.6 0-2.1-1-4.1-1.8-6l-11.7-28.7c-.8-2-4.2-2-4.2-3.3 0-.9.5-1.1 1.8-1.1 1.9 0 3.8.4 6.2.4 3.1 0 5.2-.4 6.6-.4 1.3 0 1.9.2 1.9 1.2 0 1.9-5.1.1-5.1 3.6 0 1.4.8 2.8.6 2l-.2.2 9.5 24.2 6.8-20.1c1.1-3.2 1.1-4 1.1-4.6 0-4.8-5.7-3.5-5.7-5.4 0-.9 1.1-1 2.7-1 1.1 0 2.5.4 5 .4 2 0 3.6-.4 4.5-.4 1.1 0 1.7.4 1.7 1.1 0 2-3-.2-4.8 5.2l-16.8 48.6z"/>
  <g>
    <path class="st0" d="M21.2 73.2V46.5h32.7c1.1 0 1.5.1 1.9.6l2.9 3c.5.5.6.9.6 2v15.5c0 1.1-.1 1.5-.6 2l-2.9 3c-.5.5-.8.6-1.8.6H21.2zm32.7-58.6c1.1 0 1.5.1 1.9.6l2.9 3c.5.5.6.9.6 2v6.2c0 1.1-.1 1.5-.6 2l-2.9 3c-.5.5-.9.6-1.9.6H21.2V17.9L14 14.6h39.9zm52 52.5V52.6H79.5v14.6h6v42.5c0 1.1-.1 1.5-.6 2l-2.9 3c-.5.5-.9.6-1.9.6H52.9c-1.1 0-1.5-.1-1.9-.6l-2.9-3c-.5-.5-.6-.9-.6-2v-22H54c4.4 0 7.3 0 10.7-3.5l5.7-5.8c3.4-3.5 3.4-6.4 3.4-10.7V51.9c0-4.4 0-7.2-3.4-10.7l-2-2 2-2c3.4-3.5 3.4-6.4 3.4-10.7V20c0-4.4 0-7.2-3.4-10.7l-5.7-5.8C61.2 0 58.3 0 53.9 0H0v14.6h6.9v58.6H0v14.6h33.1v21.9c0 4.5 0 7.4 3.4 10.9l5.7 5.8c3.4 3.5 6.2 3.5 10.4 3.5h27.7c4.2 0 7 0 10.4-3.5l5.7-5.8c3.4-3.5 3.4-6.4 3.4-10.9V70.4l-7.1-3.3h13.2z"/>
    <path class="st0" d="M47.4 70.9v-3.8h6.1V52.6H27.1v14.5h6v3.8z"/>
  </g>
</svg>