<svg xmlns="http://www.w3.org/2000/svg" viewBox="0 0 499.21 110.39"><defs><style>.cls-1{fill:#ee2529;}.cls-1,.cls-2{fill-rule:evenodd;}</style></defs><title>on-black</title><g id="Layer_2" data-name="Layer 2"><g id="Layer_1-2" data-name="Layer 1"><polyline class="cls-1" points="213.8 7.13 211.61 17.9 251.3 10.96 213.8 7.13"/><path class="cls-2" d="M73.87,36.75l-.81,3.91H49.85l.71-3.44c.67-3.18,4.51-5.87,8.38-5.87h9.39a6,6,0,0,1,4.75,1.95,4,4,0,0,1,.79,3.45m7.36-8.89a10.68,10.68,0,0,0-1-1.05,15.2,15.2,0,0,0-10.65-3.89H60.22c-9,0-17.61,6.2-19.2,13.83l-3.3,15.77a11,11,0,0,0,2.19,9.37c2.55,3.14,6.79,4.94,11.63,4.94H77.22L79,58.4H52.81a6,6,0,0,1-4.75-1.95A4,4,0,0,1,47.27,53l.82-3.91H80.94l2.48-11.87a11,11,0,0,0-2.19-9.36m177.6,8.89L258,40.66H234.8l.72-3.44c.66-3.18,4.5-5.87,8.38-5.87h9.39A6,6,0,0,1,258,33.3a4,4,0,0,1,.79,3.45m7.36-8.89a10.68,10.68,0,0,0-1-1.05,15.24,15.24,0,0,0-10.66-3.89h-9.38c-9,0-17.61,6.2-19.21,13.83l-3.29,15.77a11,11,0,0,0,2.19,9.37c2.55,3.14,6.78,4.94,11.62,4.94h25.67l1.76-8.43H237.77A6,6,0,0,1,233,56.45a4,4,0,0,1-.79-3.45l.81-3.91H265.9l2.47-11.87a11,11,0,0,0-2.18-9.36"/><polyline class="cls-2" points="22.1 7.15 12.46 7.15 0 66.83 30.91 66.83 32.68 58.4 11.4 58.4 22.1 7.15"/><path class="cls-2" d="M117.44,58.4H100.89A6.25,6.25,0,0,1,96,56.51a3.59,3.59,0,0,1-.69-3.12c.66-3.13,4.22-5.49,8.3-5.49h16.06Zm.25-35.48H94.28l-1.77,8.43h23.91a6,6,0,0,1,4.75,1.94,4,4,0,0,1,.79,3.46l-.57,2.73H104.85c-9.15,0-17.55,5.9-19.12,13.43a10.58,10.58,0,0,0,2.08,9c2.52,3.1,6.82,4.88,11.81,4.88h25.7l6.18-29.61a11,11,0,0,0-2.19-9.36C126.76,24.72,122.53,22.92,117.69,22.92Z"/><polyline class="cls-2" points="210.64 22.92 201.47 66.83 211.11 66.83 220.28 22.92 210.64 22.92"/><path class="cls-2" d="M303.91,58.4a6,6,0,0,1-4.75-1.95,4,4,0,0,1-.79-3.45l3.3-15.78c.66-3.18,4.5-5.87,8.38-5.87H326.1L320.46,58.4ZM331.15,7.15l-3.29,15.77H311.32c-9,0-17.61,6.2-19.2,13.83l-3.29,15.77A11,11,0,0,0,291,61.89c2.56,3.14,6.79,4.94,11.63,4.94h25.69L340.8,7.15ZM204,22.92H186.16l.31-1.46c.66-3.19,4.5-5.89,8.38-5.89H205.5l1.76-8.42H196.12c-9,0-17.6,6.2-19.19,13.83l-9.58,45.85H177l7.4-35.48h17.83L204,22.92m-40,0a25.77,25.77,0,0,0-10.72,2.2c-.35.16-.7.33-1,.51l.21-1h0l.36-1.7h-9.65l-9.17,43.91h9.65l6-28.68c.59-2.85,4-5.78,9.69-6.63a31,31,0,0,1,3.84-.17h6.34l1.75-8.43h-7.22"/><polyline class="cls-2" points="291.88 7.15 282.24 7.15 269.76 66.83 279.4 66.83 291.88 7.15"/><polyline class="cls-1" points="362.09 0 357.29 0 341.89 74.04 346.69 74.04 362.09 0"/><polyline class="cls-2" points="385.27 7.13 375.62 7.13 363.18 66.82 372.83 66.82 385.27 7.13"/><polyline class="cls-2" points="399.76 25.5 391.19 66.85 381.54 66.85 393.94 7.13 403.58 7.13 414.78 37.52 435.72 7.13 448.67 7.13 436.23 66.85 426.59 66.85 435.12 25.85 416.94 53.46 407.66 53.46 399.76 25.5"/><path class="cls-2" d="M447.92,53.26A10.49,10.49,0,0,0,449,60.59a10,10,0,0,0,1,1.54,12.06,12.06,0,0,0,4.51,3.38A16.13,16.13,0,0,0,461,66.82h12.93A20.33,20.33,0,0,0,481,65.51a21,21,0,0,0,5.91-3.38,17.51,17.51,0,0,0,1.67-1.54,15.12,15.12,0,0,0,4.1-7.33l3.72-18.14H474.2l-2,9.57h11.44l-1.9,9.24a4.55,4.55,0,0,1-1.4,1.83,6.9,6.9,0,0,1-4.28,1.5H462.22A4.17,4.17,0,0,1,458.94,56a2.26,2.26,0,0,1-.43-2l3.12-14.93L465.56,20a4.44,4.44,0,0,1,1.4-1.83,6.85,6.85,0,0,1,4.28-1.49h26l2-9.57H473.36a20.07,20.07,0,0,0-7.06,1.32,21,21,0,0,0-5.92,3.37,18.89,18.89,0,0,0-1.66,1.54,15.17,15.17,0,0,0-4.11,7.34l-6.69,32.57m8,45.87h-7.48c-1.81,0-3.07-1.25-2.76-2.74L447.19,89a2.79,2.79,0,0,1,1-1.61,4.15,4.15,0,0,1,2.59-.91h7.71Zm-4-16.54a10.34,10.34,0,0,0-6.38,2.31,7.84,7.84,0,0,0-2.84,4.36l-1.54,7.35c-.74,3.56,2.06,6.45,6.25,6.45h7.71l-.31,1.45a2.29,2.29,0,0,1-2.14,1.82h-9.13l-.85,4.06h10c3.25,0,5.94-2.64,6.62-5.88l4.59-21.92Z"/><polyline class="cls-2" points="412.37 75.22 407.87 75.22 402.06 103.04 406.55 103.04 412.37 75.22"/><polyline class="cls-2" points="420.48 75.22 415.99 75.22 410.17 103.04 414.66 103.04 420.48 75.22"/><path class="cls-2" d="M435.48,89l-.38,1.82H424.28l.33-1.6a4,4,0,0,1,3.91-2.74h4.37a2.81,2.81,0,0,1,2.22.91,1.91,1.91,0,0,1,.37,1.61m3.43-4.14a4.29,4.29,0,0,0-.46-.49,7.08,7.08,0,0,0-5-1.82h-4.38c-4.19,0-8.2,2.89-8.95,6.45l-1.53,7.35a5.13,5.13,0,0,0,1,4.36,6.85,6.85,0,0,0,5.42,2.31h12l.82-3.93H425.66a2.79,2.79,0,0,1-2.21-.91,1.84,1.84,0,0,1-.37-1.61l.38-1.82h15.31l1.15-5.53a5.12,5.12,0,0,0-1-4.36M480.76,89l-.38,1.82H469.57l.33-1.6a4,4,0,0,1,3.91-2.74h4.37a2.81,2.81,0,0,1,2.22.91,1.87,1.87,0,0,1,.36,1.61m3.44-4.14a5.42,5.42,0,0,0-.46-.49,7.08,7.08,0,0,0-5-1.82H474.4c-4.19,0-8.2,2.89-8.95,6.45l-1.53,7.35a5.1,5.1,0,0,0,1,4.36,6.83,6.83,0,0,0,5.41,2.31h12l.82-3.93H471a2.81,2.81,0,0,1-2.22-.91,1.87,1.87,0,0,1-.36-1.61l.38-1.82h15.31l1.15-5.53a5.12,5.12,0,0,0-1-4.36M386.27,98.65l-.19-.12-.08-.07a3,3,0,0,1-.25-.25h0v0L385.6,98a.16.16,0,0,0,0-.07l-.07-.15,0-.07a.86.86,0,0,1-.07-.21h0a2,2,0,0,1,0-.26h0a.09.09,0,0,1,0,0V97h0v-.14a.2.2,0,0,1,0-.07.78.78,0,0,1,0-.14s0,0,0-.08v0h0l.18-.86.19-.92h0l.82-3.93h0l.34-1.6c0-.09,0-.18.07-.28a2,2,0,0,1,.11-.26,2.62,2.62,0,0,1,.3-.51,1.59,1.59,0,0,1,.2-.24,3.12,3.12,0,0,1,.45-.44l.26-.2a4.5,4.5,0,0,1,1.18-.59,4,4,0,0,1,.66-.16,3.79,3.79,0,0,1,.67-.06h4.39a3.15,3.15,0,0,1,.44,0h0l.11,0h.08l.31.07.32.11.29.14a3.13,3.13,0,0,1,.3.2l.08.07a2,2,0,0,1,.25.25h0l0,0,.12.17a.31.31,0,0,1,0,.1h0a.25.25,0,0,1,0,.07.36.36,0,0,1,0,.09l0,.09a.29.29,0,0,1,0,.09.16.16,0,0,1,0,.09,1,1,0,0,1,0,.24h0v0s0,.1,0,.15h0s0,.09,0,.13a.22.22,0,0,1,0,.08.59.59,0,0,1,0,.13.28.28,0,0,1,0,.09l-.38,1.82h0l-.82,3.93h0l-.34,1.6a2.68,2.68,0,0,1-.07.27,2.18,2.18,0,0,1-.11.27,2.62,2.62,0,0,1-.3.51,3.82,3.82,0,0,1-.91.88l-.27.17a3.36,3.36,0,0,1-.6.3,4.13,4.13,0,0,1-1.3.32l-.34,0h-4.4c-.14,0-.28,0-.42,0l-.17,0-.25,0L387,99l-.07,0a2,2,0,0,1-.34-.13h0l-.07,0ZM402.33,88v-.14c0-.11,0-.23,0-.34a4.34,4.34,0,0,0-.09-.52v0a4.18,4.18,0,0,0-.19-.6,3.9,3.9,0,0,0-.2-.47s0,0,0,0l0,0a4.49,4.49,0,0,0-.24-.42c-.1-.15-.21-.3-.32-.44h0a5.92,5.92,0,0,0-.41-.45l0,0h0a6,6,0,0,0-.46-.4l0,0a5.11,5.11,0,0,0-.48-.33l0,0h0a5.45,5.45,0,0,0-.53-.29h0l-.17-.08-.41-.17-.62-.2h-.07a6,6,0,0,0-.61-.14h-.1a6.17,6.17,0,0,0-.62-.08h-.09c-.22,0-.45,0-.68,0h-4.37a9.68,9.68,0,0,0-2.88.45l-.35.12a9.62,9.62,0,0,0-4.59,3.36,7,7,0,0,0-.7,1.21,6.28,6.28,0,0,0-.43,1.31l-.38,1.82h0l-1.16,5.53c0,.15-.05.3-.07.45a.59.59,0,0,1,0,.14,2.72,2.72,0,0,0,0,.28c0,.1,0,.21,0,.31s0,.07,0,.1v.14c0,.11,0,.23,0,.34a4.34,4.34,0,0,0,.09.52s0,0,0,0a4.56,4.56,0,0,0,.18.6,2.76,2.76,0,0,0,.2.47,5,5,0,0,0,.62,1,5.92,5.92,0,0,0,.41.45l0,0h0l.46.4,0,0a4.26,4.26,0,0,0,.49.34l0,0h0a5.45,5.45,0,0,0,.53.29h0l.17.08a8.36,8.36,0,0,0,1,.37h.07a6,6,0,0,0,.61.14h.1a6,6,0,0,0,.63.08h.08c.23,0,.45,0,.68,0h4.37a9.63,9.63,0,0,0,2.88-.45l.35-.12a10.52,10.52,0,0,0,1.53-.69c.16-.08.32-.18.47-.27s.41-.27.61-.41l.6-.48a8.89,8.89,0,0,0,1.38-1.51,7.11,7.11,0,0,0,.7-1.22,5.51,5.51,0,0,0,.43-1.3l1.54-7.35c0-.15,0-.3.07-.45a.77.77,0,0,1,0-.15,2.44,2.44,0,0,0,0-.27c0-.1,0-.21,0-.31S402.33,88,402.33,88Zm-38.92,2.09,1.83-8.92a2.29,2.29,0,0,1,.66-.86,3.25,3.25,0,0,1,2-.69H382L383,75.1H368.89a9.72,9.72,0,0,0-3.3.61,10.15,10.15,0,0,0-2.77,1.58,7.52,7.52,0,0,0-2.7,4.16l0,.1-1.2,5.88-1.14,5.48,0,.18,0,.18L357,96.69a4.87,4.87,0,0,0,1,4.15,5.57,5.57,0,0,0,2.11,1.58,7.52,7.52,0,0,0,3.05.62h14.06l.94-4.48H363.68a2,2,0,0,1-1.53-.59A1,1,0,0,1,362,97l1.46-7"/></g></g></svg>