<svg xmlns="http://www.w3.org/2000/svg" width="164" height="200" viewBox="0 0 164 200">
  <g fill="#F2AF36" fill-rule="evenodd">
    <polyline points="73.619 108 73.619 102.248 83 102.25 83 80 42 80 42 102.25 51.378 102.25 51.378 108 73.619 108"/>
    <path d="M32.8223959 111.647132L32.8223959 70.9680328 83.5055003 70.9680328C85.1578181 70.9680328 85.7774372 71.1615763 86.5189895 71.9057823L91.0802822 76.4858957C91.8442303 77.2500804 92.0184205 77.8157269 92.0184205 79.5126664L92.0184205 103.102498C92.0184205 104.799437 91.8429861 105.366333 91.0753054 106.134263L86.5227221 110.705636C85.8209848 111.409885 85.2175404 111.62091 83.7717624 111.643386L32.8223959 111.647132zM83.5055003 22.227535C85.1565739 22.227535 85.7774372 22.4210785 86.5189895 23.1652845L91.0802822 27.7441492C91.8442303 28.5095826 92.0184205 29.0752291 92.0184205 30.7721686L92.0184205 40.1983616C92.0184205 41.8953011 91.8429861 42.4621963 91.0753054 43.2301269L86.5227221 47.8014997C85.7774372 48.5494517 85.1565739 48.7429952 83.5055003 48.7429952L32.8223959 48.7429952 32.8223959 27.2446821 21.748881 22.227535 83.5055003 22.227535zM164 102.419477L164 80.194439 123.17108 80.194439 123.17108 102.421974 132.511403 102.421974 132.511403 167.22908C132.511403 168.884814 132.319794 169.507899 131.576997 170.253353L127.01446 174.829721C126.253001 175.596403 125.689371 175.772465 123.997238 175.772465L82.0124422 175.772465C80.322798 175.772465 79.7579243 175.596403 78.9902435 174.825975L74.4364161 170.257099C73.6911312 169.507899 73.4970336 168.884814 73.4970336 167.22908L73.4970336 133.874667 83.5055003 133.874667C90.2777634 133.874667 94.7519612 133.874667 100.052318 128.561585L108.860117 119.721017C114.169183 114.401693 114.167939 110.003885 114.167939 103.345988L114.167939 79.2629329C114.167939 72.6087823 114.169183 68.2134717 108.87878 62.9141257L105.832941 59.8561383 108.860117 56.8156323C114.169183 51.4975563 114.167939 47.0997484 114.167939 40.4406031L114.167939 30.522435C114.167939 23.8682845 114.169183 19.4717252 108.87878 14.1723792L100.036143 5.29560002C94.7519612 0 90.2790077 0 83.5055003 0L0 0 0 22.227535 10.6741218 22.227535 10.6741218 111.647132 0 111.647132 0 133.874667 51.3500038 133.874667 51.3500038 167.22908C51.3500038 174.025579 51.3500038 178.514539 56.6441393 183.835113L65.4544268 192.674432C70.7510508 198 75.0411046 198 81.5321751 198L124.483727 198C130.971064 198 135.257386 198 140.536591 192.693162L149.38296 183.81888C154.660921 178.514539 154.660921 174.025579 154.660921 167.22908L154.660921 107.437872 143.584918 102.421974 164 102.419477 164 102.419477zM150.805962 192.344C151.547097 192.344 152.204122 192.402667 152.204122 193.183667 152.204122 194.024556 151.058289 193.882778 150.222074 193.882778L149.270058 193.882778 149.270058 192.344 150.805962 192.344zM151.449579 194.778667C152.271166 194.751778 153.093972 194.303222 153.093972 193.085889 153.093972 191.784222 152.090758 191.448111 150.975399 191.448111L148.378989 191.448111 148.378989 197.633778 149.270058 197.633778 149.270058 194.778667 150.414672 194.778667 151.99324 197.633778 153.012301 197.633778 151.449579 194.778667zM150.5 200C153.57059 200 156 197.565333 156 194.5 156 191.433444 153.57059 189 150.5 189 147.42941 189 145 191.433444 145 194.5 145 197.565333 147.42941 200 150.5 200L150.5 200zM150.5 189.893444C153.012301 189.893444 155.106494 191.899111 155.106494 194.5 155.106494 197.088667 153.012301 199.104111 150.5 199.104111 147.987699 199.104111 145.894725 197.088667 145.894725 194.5 145.894725 191.899111 147.987699 189.893444 150.5 189.893444L150.5 189.893444z"/>
  </g>
</svg>
