<svg xmlns="http://www.w3.org/2000/svg" width="450.8" height="153" viewBox="0 0 450.8 153"><defs><style>.cls-1{fill:#003057;}.cls-1,.cls-2{fill-rule:evenodd;}.cls-2{fill:#e87722;}</style></defs><title>blue-orange</title><g id="Layer_2" data-name="Layer 2"><g id="Layer_1-2" data-name="Layer 1"><path class="cls-1" d="M261,13.77V.23h5.34c3.17,0,5.14,1.8,5.14,4.53v0c0,3-2.44,4.62-5.41,4.62h-2.69v4.35Zm2.38-6.5h2.76c1.8,0,2.92-1,2.92-2.42v0c0-1.58-1.14-2.41-2.92-2.41h-2.76ZM286.33,14a6.87,6.87,0,0,1-7.06-7V7a7.08,7.08,0,0,1,14.15,0V7A6.93,6.93,0,0,1,286.33,14Zm0-2.2A4.56,4.56,0,0,0,290.93,7V7a4.64,4.64,0,0,0-4.6-4.81A4.57,4.57,0,0,0,281.76,7V7A4.63,4.63,0,0,0,286.36,11.8Zm18.81,2.06L300.45.23H303l3.23,10L309.58.19h2l3.33,10.08,3.23-10h2.49l-4.7,13.63h-2.07l-3.32-9.72-3.33,9.72ZM329,13.77V.23h10V2.36h-7.66V5.88h6.78V8h-6.78v3.63h7.75v2.13Zm18.9,0V.23h6a5.4,5.4,0,0,1,3.9,1.36A4.07,4.07,0,0,1,359,4.51v0a4.06,4.06,0,0,1-3.21,4.1l3.65,5.13h-2.82l-3.33-4.72h-3v4.72Zm2.38-6.83h3.48c1.71,0,2.79-.89,2.79-2.26v0c0-1.45-1.05-2.24-2.81-2.24h-3.46Zm17.56,6.83V.23h10V2.36h-7.66V5.88H377V8h-6.79v3.63H378v2.13Zm18.9,0V.23h5.05C396.07.23,399,3.15,399,7V7c0,3.81-2.94,6.77-7.19,6.77ZM391.82,2.4h-2.67v9.2h2.67A4.41,4.41,0,0,0,396.52,7V7A4.44,4.44,0,0,0,391.82,2.4Zm27.77,11.37V.23h6.08a4.89,4.89,0,0,1,3.53,1.2,3,3,0,0,1,.91,2.24v0a3.23,3.23,0,0,1-1.93,3c1.58.54,2.69,1.45,2.69,3.29v0c0,2.41-2,3.71-5,3.71Zm8.14-9.67v0c0-1.06-.85-1.72-2.37-1.72h-3.43v3.6h3.25C426.71,5.94,427.73,5.34,427.73,4.1Zm.76,5.67c0-1.15-.91-1.82-2.79-1.82h-3.77v3.71h3.95c1.62,0,2.61-.64,2.61-1.86Zm14.42,4V8.43L437.53.23h2.83l3.77,6,3.82-6h2.73l-5.37,8.14v5.4Z"/><path class="cls-2" d="M325.74,122.51c-1,0-1.49.91-1.49,2.72v1.07q0,2.07,3,3.86a25.55,25.55,0,0,1,5.66,4.11q3.1,3.58,3.1,9.87,0,8.87-10.36,8.86c-3.41,0-5.87-.63-7.34-1.89S316,147.35,316,144v-4.31h8.32c0,.39,0,1-.1,1.79s-.09,1.4-.09,1.79c0,2.8.56,4.21,1.69,4.21s1.69-1.09,1.69-3.24a8.27,8.27,0,0,0-.58-3.46,6.46,6.46,0,0,0-2.4-2.44,48.43,48.43,0,0,1-5.54-4q-3-3.19-3-8.8,0-8.58,9.79-8.57c4,0,6.69.85,8,2.52,1.12,1.41,1.68,4.19,1.68,8.32h-8v-2.13c0-2.13-.58-3.2-1.74-3.2M347,132.28h1.61a1.94,1.94,0,0,0,2.22-2.17v-4.89a1.93,1.93,0,0,0-2.22-2.16H347Zm-8-15.28H350.2c5.67,0,8.52,2.75,8.52,8.22v4.43c0,3.91-1.05,6.42-3.13,7.57-1.35.74-4.2,1.11-8.57,1.11V153h-8Zm31.57,27.91c0,1.52.56,2.28,1.69,2.28s1.7-.76,1.7-2.28V125.08c0-1.51-.56-2.27-1.7-2.27s-1.69.76-1.69,2.27Zm-8.9-17.22c0-3.64.86-6.33,2.56-8.07s4.39-2.62,8-2.62,6.32.87,8,2.62,2.57,4.43,2.57,8.07V142.3q0,5.47-2.57,8.08c-1.71,1.74-4.38,2.62-8,2.62s-6.32-.88-8-2.62-2.56-4.43-2.56-8.08Zm32.17,3.07h.7c1.85,0,2.78-.83,2.78-2.52v-3c0-1.67-.93-2.51-2.78-2.51h-.7Zm-8-13.76h9.24q6.71,0,8.62,1.91c1.28,1.28,1.91,4.16,1.91,8.63a7,7,0,0,1-1.23,4.51,6.2,6.2,0,0,1-4.22,1.84,7.11,7.11,0,0,1,4.49,1.86,6.82,6.82,0,0,1,1.32,4.64V153h-8.67V139.33q0-3.12-2.37-3.12h-1.11V153h-8Z"/><polyline class="cls-2" points="413.54 124.26 408.04 124.26 408.04 117 428.31 117 428.31 124.26 422.81 124.26 422.81 153 413.54 153 413.54 124.26"/><path class="cls-2" d="M440.5,122.51c-1,0-1.5.91-1.5,2.72v1.07c0,1.38,1,2.67,3.05,3.86a25.68,25.68,0,0,1,5.65,4.11q3.1,3.58,3.1,9.87,0,8.87-10.36,8.86-5.12,0-7.36-1.89-2.35-2.09-2.36-7.11v-4.31h8.33c0,.39,0,1-.1,1.79s-.09,1.4-.09,1.79c0,2.8.55,4.21,1.69,4.21s1.69-1.09,1.69-3.24a8.1,8.1,0,0,0-.59-3.46,6.49,6.49,0,0,0-2.39-2.44,47.42,47.42,0,0,1-5.54-4q-3-3.19-3-8.8,0-8.58,9.8-8.57c4,0,6.69.85,8,2.52,1.13,1.41,1.68,4.19,1.68,8.32h-8v-2.13c0-2.13-.59-3.2-1.74-3.2"/><polygon class="cls-1" points="0 128.38 306.47 128.38 306.47 124.78 0 124.78 0 128.38"/><path class="cls-1" d="M114.77,37.79q-3.67,0-3.67,6.33v2.49q0,4.88,7.44,9,10.38,5.9,13.8,9.62,7.54,8.39,7.55,23.08,0,20.7-25.25,20.71-12.49,0-17.93-4.42Q90.92,99.79,90.93,88V78h20.29c0,.91-.08,2.3-.23,4.19s-.24,3.28-.24,4.19c0,6.55,1.37,9.84,4.13,9.84S119,93.64,119,88.58a18.79,18.79,0,0,0-1.4-8.08c-.94-1.92-2.9-3.83-5.88-5.71Q100,67.32,98.21,65.51,90.94,58,90.93,44.92q0-20,23.89-20,14.72,0,19.54,5.89,4.11,5,4.11,19.45H119v-5c0-5-1.41-7.47-4.23-7.47"/><polygon class="cls-1" points="145.09 109.3 166.78 109.3 166.78 25.12 145.09 25.12 145.09 109.3"/><path class="cls-1" d="M194.71,95.15h3.18q5.07,0,5.07-7v-42q0-7-5.07-7h-3.18Zm-21.7-70h27.36q12.84,0,18.15,4.25,6.14,4.83,6.13,17.33V93.15q0,16.16-19.21,16.15H173Zm79.62,67.2V73.81H271l2.05-16.27H252.63V42.1H275l2.14-17H225.55s5.14,2.89,5.38,7.45v69.28c-.24,4.56-5.38,7.45-5.38,7.45h41l2.14-17h-16m50.42-18.64L299.28,40l-3.77,33.7ZM283.37,25.12h31.24l11.55,84.18H305.58l-2.17-22.7h-7.9l-2.37,22.7H272.76Zm64.69,32.19h1.65q6.48,0,6.48-5.89v-7q0-5.9-6.48-5.9h-1.65ZM320.84,25.12H351q15.67,0,20.16,4.49t4.48,20.15q0,7.08-2.89,10.55t-9.84,4.31q7.41.94,10.49,4.36t3.06,10.85V109.3H356.19V81.47c0-4.88-1.84-7.79-5.54-7.79h-2.59V109.3H332.2Z"/><polyline class="cls-1" points="381.71 25.12 410.6 25.12 416.25 72.67 421.56 25.12 450.8 25.12 450.8 109.3 432.4 109.3 432.4 46.81 423.02 109.3 409.25 109.3 400.11 46.81 400.11 109.3 381.71 109.3 381.71 25.12"/><polyline class="cls-1" points="24.12 91.09 42.09 109.07 67.18 83.98 58.73 75.53 24.12 91.09"/><polyline class="cls-1" points="17 49.98 25.44 58.42 60.06 42.86 42.09 24.89 17 49.98"/><polyline class="cls-2" points="23.86 65.19 12.82 54.16 0 66.98 19.94 86.92 60.32 68.77 71.35 79.8 84.17 66.98 64.23 47.04 23.86 65.19"/><polyline class="cls-1" points="0 139.86 1.95 139.86 1.95 149.19 7.79 149.19 7.79 150.97 0 150.97 0 139.86"/><polyline class="cls-1" points="22.01 141.61 15.73 141.61 15.73 144.5 21.3 144.5 21.3 146.24 15.73 146.24 15.73 149.22 22.09 149.22 22.09 150.97 13.78 150.97 13.78 139.86 22.01 139.86 22.01 141.61"/><path class="cls-1" d="M33.17,142.12l-1.9,4.44h3.82ZM39,151H36.93l-1.12-2.68H30.55L29.41,151h-2l4.89-11.19h1.81Zm10.66-9.33H46.81v3.73h2.86c1.39,0,2.28-.73,2.28-1.87S51.09,141.64,49.65,141.64ZM52,151l-2.73-3.87H46.81V151h-2V139.86h5c2.55,0,4.12,1.35,4.12,3.53a3.3,3.3,0,0,1-2.65,3.37l3,4.21Z"/><polyline class="cls-1" points="68.55 141.64 62.24 141.64 62.24 144.67 67.84 144.67 67.84 146.45 62.24 146.45 62.24 150.97 60.28 150.97 60.28 139.86 68.55 139.86 68.55 141.64"/><polygon class="cls-1" points="74.76 150.97 76.71 150.97 76.71 139.86 74.76 139.86 74.76 150.97"/><polyline class="cls-1" points="91.87 141.61 85.58 141.61 85.58 144.5 91.16 144.5 91.16 146.24 85.58 146.24 85.58 149.22 91.95 149.22 91.95 150.97 83.63 150.97 83.63 139.86 91.87 139.86 91.87 141.61"/><polyline class="cls-1" points="98.22 139.86 100.17 139.86 100.17 149.19 106.01 149.19 106.01 150.97 98.22 150.97 98.22 139.86"/><path class="cls-1" d="M116.14,141.64H114v7.55h2.19a3.78,3.78,0,1,0,0-7.55Zm0,9.33H112V139.86h4.14a5.57,5.57,0,1,1,0,11.11Z"/><polygon class="cls-1" points="137.5 153 139.04 153 139.04 138.31 137.5 138.31 137.5 153"/><polygon class="cls-1" points="155.11 150.97 157.06 150.97 157.06 139.86 155.11 139.86 155.11 150.97"/><polyline class="cls-1" points="169.44 148.24 169.38 148.24 165.9 143.04 165.9 150.97 163.98 150.97 163.98 139.86 166.06 139.86 169.44 145.12 172.82 139.86 174.9 139.86 174.9 150.97 172.95 150.97 172.95 143 169.44 148.24"/><path class="cls-1" d="M187,151.16a5.52,5.52,0,0,1-5.76-5.73,5.67,5.67,0,0,1,5.73-5.76,6,6,0,0,1,4.27,1.51L190,142.66a4.37,4.37,0,0,0-3.11-1.2,3.75,3.75,0,0,0-3.6,3.94,3.71,3.71,0,0,0,3.77,4,4.5,4.5,0,0,0,2.68-.84v-2.08h-2.84v-1.69h4.73v4.66a7,7,0,0,1-4.63,1.73m25,0a5.75,5.75,0,0,1,.08-11.49,5.84,5.84,0,0,1,4.35,1.73l-1.26,1.45a4.41,4.41,0,0,0-3.11-1.39,4,4,0,0,0,0,7.91,4.34,4.34,0,0,0,3.19-1.45l1.26,1.27a5.73,5.73,0,0,1-4.51,2m15.49-9.7a3.76,3.76,0,0,0-3.74,3.94,3.81,3.81,0,0,0,3.77,4,3.76,3.76,0,0,0,3.75-3.94A3.81,3.81,0,0,0,227.47,141.46Zm0,9.7a5.75,5.75,0,1,1,5.82-5.76A5.64,5.64,0,0,1,227.47,151.16Z"/><polyline class="cls-1" points="239.62 139.86 241.57 139.86 241.57 149.19 247.41 149.19 247.41 150.97 239.62 150.97 239.62 139.86"/><polyline class="cls-1" points="253.39 139.86 255.34 139.86 255.34 149.19 261.18 149.19 261.18 150.97 253.39 150.97 253.39 139.86"/><polyline class="cls-1" points="275.4 141.61 269.12 141.61 269.12 144.5 274.69 144.5 274.69 146.24 269.12 146.24 269.12 149.22 275.48 149.22 275.48 150.97 267.17 150.97 267.17 139.86 275.4 139.86 275.4 141.61"/><path class="cls-1" d="M287,151.16a5.51,5.51,0,0,1-5.75-5.73,5.66,5.66,0,0,1,5.72-5.76,6,6,0,0,1,4.27,1.51L290,142.66a4.33,4.33,0,0,0-3.11-1.2,3.76,3.76,0,0,0-3.6,3.94,3.71,3.71,0,0,0,3.78,4,4.5,4.5,0,0,0,2.68-.84v-2.08h-2.84v-1.69h4.73v4.66a7.09,7.09,0,0,1-4.64,1.73"/><polyline class="cls-1" points="306.39 141.61 300.11 141.61 300.11 144.5 305.67 144.5 305.67 146.24 300.11 146.24 300.11 149.22 306.47 149.22 306.47 150.97 298.15 150.97 298.15 139.86 306.39 139.86 306.39 141.61"/></g></g></svg>